REM DIRINDEX 1\6,1\2\7,1\2\8,1\2\9,1\3\10,1\3\11,1\4\12,1\4\13,1\4\14,1\5\15,1\5\16,1\5\17
REM DIRNAME cjc041,folder01,folder02,folder03,folder04,folder05,folder06,folder07,folder08,folder09,folder10,folder11,folder12,folder13,folder14,folder15,folder16
TITLE ""
FILE "3Q_t2_0691-0706.mp3" MP3
  TRACK 01 AUDIO
    TITLE "7:cjc041_5491"
    INDEX 01 00:00:00
  TRACK 02 AUDIO
    TITLE "0:"
    INDEX 01 00:01:11
  TRACK 03 AUDIO
    TITLE "8:cjc041_5492"
    INDEX 01 00:01:69
  TRACK 04 AUDIO
    TITLE "0:"
    INDEX 01 00:04:33
  TRACK 05 AUDIO
    TITLE "9:cjc041_5493"
    INDEX 01 00:05:14
  TRACK 06 AUDIO
    TITLE "0:"
    INDEX 01 00:06:35
  TRACK 07 AUDIO
    TITLE "7:cjc041_5494"
    INDEX 01 00:08:13
  TRACK 08 AUDIO
    TITLE "0:"
    INDEX 01 00:09:38
  TRACK 09 AUDIO
    TITLE "8:cjc041_5495"
    INDEX 01 00:10:16
  TRACK 10 AUDIO
    TITLE "0:"
    INDEX 01 00:13:12
  TRACK 11 AUDIO
    TITLE "9:cjc041_5496"
    INDEX 01 00:13:65
  TRACK 12 AUDIO
    TITLE "0:"
    INDEX 01 00:15:17
  TRACK 13 AUDIO
    TITLE "7:cjc041_5497"
    INDEX 01 00:16:73
  TRACK 14 AUDIO
    TITLE "0:"
    INDEX 01 00:18:09
  TRACK 15 AUDIO
    TITLE "8:cjc041_5498"
    INDEX 01 00:18:64
  TRACK 16 AUDIO
    TITLE "0:"
    INDEX 01 00:20:57
  TRACK 17 AUDIO
    TITLE "9:cjc041_5499"
    INDEX 01 00:21:35
  TRACK 18 AUDIO
    TITLE "0:"
    INDEX 01 00:22:50
  TRACK 19 AUDIO
    TITLE "7:cjc041_5500"
    INDEX 01 00:24:25
  TRACK 20 AUDIO
    TITLE "0:"
    INDEX 01 00:25:45
  TRACK 21 AUDIO
    TITLE "8:cjc041_5501"
    INDEX 01 00:26:20
  TRACK 22 AUDIO
    TITLE "0:"
    INDEX 01 00:28:41
  TRACK 23 AUDIO
    TITLE "9:cjc041_5502"
    INDEX 01 00:29:17
  TRACK 24 AUDIO
    TITLE "0:"
    INDEX 01 00:30:32
  TRACK 25 AUDIO
    TITLE "7:cjc041_5503"
    INDEX 01 00:32:15
  TRACK 26 AUDIO
    TITLE "0:"
    INDEX 01 00:33:26
  TRACK 27 AUDIO
    TITLE "8:cjc041_5504"
    INDEX 01 00:34:08
  TRACK 28 AUDIO
    TITLE "0:"
    INDEX 01 00:34:65
  TRACK 29 AUDIO
    TITLE "9:cjc041_5505"
    INDEX 01 00:35:53
  TRACK 30 AUDIO
    TITLE "0:"
    INDEX 01 00:36:68
  TRACK 31 AUDIO
    TITLE "7:cjc041_5506"
    INDEX 01 00:38:51
  TRACK 32 AUDIO
    TITLE "0:"
    INDEX 01 00:39:62
  TRACK 33 AUDIO
    TITLE "8:cjc041_5507"
    INDEX 01 00:40:42
  TRACK 34 AUDIO
    TITLE "0:"
    INDEX 01 00:43:39
  TRACK 35 AUDIO
    TITLE "9:cjc041_5508"
    INDEX 01 00:44:16
  TRACK 36 AUDIO
    TITLE "0:"
    INDEX 01 00:45:26
  TRACK 37 AUDIO
    TITLE "7:cjc041_5509"
    INDEX 01 00:47:03
  TRACK 38 AUDIO
    TITLE "0:"
    INDEX 01 00:48:26
  TRACK 39 AUDIO
    TITLE "8:cjc041_5510"
    INDEX 01 00:49:06
  TRACK 40 AUDIO
    TITLE "0:"
    INDEX 01 00:49:69
  TRACK 41 AUDIO
    TITLE "9:cjc041_5511"
    INDEX 01 00:50:48
  TRACK 42 AUDIO
    TITLE "0:"
    INDEX 01 00:52:02
  TRACK 43 AUDIO
    TITLE "7:cjc041_5512"
    INDEX 01 00:53:55
  TRACK 44 AUDIO
    TITLE "0:"
    INDEX 01 00:55:03
  TRACK 45 AUDIO
    TITLE "8:cjc041_5513"
    INDEX 01 00:55:51
  TRACK 46 AUDIO
    TITLE "0:"
    INDEX 01 00:56:41
  TRACK 47 AUDIO
    TITLE "9:cjc041_5514"
    INDEX 01 00:57:23
  TRACK 48 AUDIO
    TITLE "0:"
    INDEX 01 00:58:44
  TRACK 49 AUDIO
    TITLE "7:cjc041_5515"
    INDEX 01 01:00:23
  TRACK 50 AUDIO
    TITLE "0:"
    INDEX 01 01:01:56
  TRACK 51 AUDIO
    TITLE "8:cjc041_5516"
    INDEX 01 01:02:42
  TRACK 52 AUDIO
    TITLE "0:"
    INDEX 01 01:03:71
  TRACK 53 AUDIO
    TITLE "9:cjc041_5517"
    INDEX 01 01:04:50
  TRACK 54 AUDIO
    TITLE "0:"
    INDEX 01 01:06:12
  TRACK 55 AUDIO
    TITLE "7:cjc041_5518"
    INDEX 01 01:07:66
  TRACK 56 AUDIO
    TITLE "0:"
    INDEX 01 01:09:05
  TRACK 57 AUDIO
    TITLE "8:cjc041_5519"
    INDEX 01 01:09:61
  TRACK 58 AUDIO
    TITLE "0:"
    INDEX 01 01:11:62
  TRACK 59 AUDIO
    TITLE "9:cjc041_5520"
    INDEX 01 01:12:38
  TRACK 60 AUDIO
    TITLE "0:"
    INDEX 01 01:13:57
  TRACK 61 AUDIO
    TITLE "7:cjc041_5521"
    INDEX 01 01:15:37
  TRACK 62 AUDIO
    TITLE "0:"
    INDEX 01 01:16:50
  TRACK 63 AUDIO
    TITLE "8:cjc041_5522"
    INDEX 01 01:17:35
  TRACK 64 AUDIO
    TITLE "0:"
    INDEX 01 01:19:50
  TRACK 65 AUDIO
    TITLE "9:cjc041_5523"
    INDEX 01 01:20:30
  TRACK 66 AUDIO
    TITLE "0:"
    INDEX 01 01:21:45
  TRACK 67 AUDIO
    TITLE "7:cjc041_5524"
    INDEX 01 01:23:30
  TRACK 68 AUDIO
    TITLE "0:"
    INDEX 01 01:24:51
  TRACK 69 AUDIO
    TITLE "8:cjc041_5525"
    INDEX 01 01:25:27
  TRACK 70 AUDIO
    TITLE "0:"
    INDEX 01 01:26:32
  TRACK 71 AUDIO
    TITLE "9:cjc041_5526"
    INDEX 01 01:27:18
  TRACK 72 AUDIO
    TITLE "0:"
    INDEX 01 01:28:39
  TRACK 73 AUDIO
    TITLE "7:cjc041_5527"
    INDEX 01 01:30:18
  TRACK 74 AUDIO
    TITLE "0:"
    INDEX 01 01:31:36
  TRACK 75 AUDIO
    TITLE "8:cjc041_5528"
    INDEX 01 01:32:15
  TRACK 76 AUDIO
    TITLE "0:"
    INDEX 01 01:35:41
  TRACK 77 AUDIO
    TITLE "9:cjc041_5529"
    INDEX 01 01:36:19
  TRACK 78 AUDIO
    TITLE "0:"
    INDEX 01 01:37:36
  TRACK 79 AUDIO
    TITLE "7:cjc041_5530"
    INDEX 01 01:39:15
  TRACK 80 AUDIO
    TITLE "0:"
    INDEX 01 01:40:38
  TRACK 81 AUDIO
    TITLE "8:cjc041_5531"
    INDEX 01 01:41:18
  TRACK 82 AUDIO
    TITLE "0:"
    INDEX 01 01:43:45
  TRACK 83 AUDIO
    TITLE "9:cjc041_5532"
    INDEX 01 01:44:24
  TRACK 84 AUDIO
    TITLE "0:"
    INDEX 01 01:45:47
  TRACK 85 AUDIO
    TITLE "7:cjc041_5533"
    INDEX 01 01:47:29
  TRACK 86 AUDIO
    TITLE "0:"
    INDEX 01 01:48:60
  TRACK 87 AUDIO
    TITLE "8:cjc041_5534"
    INDEX 01 01:49:37
  TRACK 88 AUDIO
    TITLE "0:"
    INDEX 01 01:52:08
  TRACK 89 AUDIO
    TITLE "9:cjc041_5535"
    INDEX 01 01:52:67
  TRACK 90 AUDIO
    TITLE "0:"
    INDEX 01 01:54:23
  TRACK 91 AUDIO
    TITLE "7:cjc041_5536"
    INDEX 01 01:56:02
  TRACK 92 AUDIO
    TITLE "0:"
    INDEX 01 01:57:17
  TRACK 93 AUDIO
    TITLE "8:cjc041_5537"
    INDEX 01 01:57:70
  TRACK 94 AUDIO
    TITLE "0:"
    INDEX 01 01:58:74
  TRACK 95 AUDIO
    TITLE "9:cjc041_5538"
    INDEX 01 01:59:50
  TRACK 96 AUDIO
    TITLE "0:"
    INDEX 01 02:00:71
